<?xml version="1.0" encoding="utf-8"?>
<!-- Generator: Adobe Illustrator 25.0.1, SVG Export Plug-In . SVG Version: 6.00 Build 0)  -->
<svg version="1.1" id="Ebene_1" xmlns="http://www.w3.org/2000/svg" xmlns:xlink="http://www.w3.org/1999/xlink" x="0px" y="0px"
	 viewBox="0 0 1007 772.09" style="enable-background:new 0 0 1007 772.09;" xml:space="preserve">
<style type="text/css">
	.st0{fill:#FFFFFF;}
	.st1{font-family:'Moon2.0-Regular';}
	.st2{font-size:303.4764px;}
	.st3{fill:#FFFFFF;stroke:#000000;stroke-width:3;stroke-miterlimit:10;}
</style>
<g>
	<path class="st0" d="M135.34,511.5l-0.81-0.01c-35.63-0.29-69.07-13.09-94.16-36.03C15.3,452.53,1.5,422.14,1.5,389.88
		c0-67.06,60.24-121.62,134.28-121.62c3.7,0,7.51,0.15,11.32,0.43l1.11,0.08l0.4-1.04c28.35-73.33,105.04-122.6,190.83-122.6
		c9.18,0,18.5,0.58,27.67,1.72l1.02,0.13l0.48-0.91c22.64-42.65,57.89-78.73,101.94-104.34C515.81,15.41,568.28,1.5,622.3,1.5
		c75.18,0,145.86,26.54,199.01,74.74c53.11,48.16,82.36,112.18,82.36,180.26c0,4.52-0.14,9.22-0.42,13.96l-0.08,1.27l1.24,0.28
		c59.52,13.71,101.09,62.18,101.09,117.87c0,67.06-60.24,121.62-134.27,121.62H135.34z"/>
	<path d="M622.3,3c37.82,0,74.5,6.71,109.03,19.96c33.34,12.79,63.27,31.09,88.97,54.39c25.68,23.29,45.84,50.4,59.92,80.58
		c14.56,31.22,21.95,64.39,21.95,98.57c0,4.5-0.14,9.16-0.42,13.87l-0.15,2.53l2.47,0.57c28.11,6.47,53.54,21.47,71.58,42.22
		c18.55,21.33,28.35,46.99,28.35,74.19c0,32.03-13.77,62.16-38.78,84.84C940.13,497.47,906.75,510,871.22,510H136.27l-1.73-0.01
		c-35.26-0.29-68.35-12.95-93.16-35.64C16.63,451.71,3,421.71,3,389.88c0-32.03,13.77-62.16,38.78-84.84
		c25.09-22.75,58.47-35.28,93.99-35.28c3.67,0,7.44,0.14,11.21,0.43l2.22,0.17l0.8-2.08c6.77-17.5,16.45-33.93,28.79-48.83
		c12.22-14.75,26.78-27.71,43.28-38.5c34.31-22.44,74.89-34.31,117.36-34.31c9.12,0,18.37,0.57,27.49,1.7l2.05,0.25l0.97-1.82
		c22.51-42.4,57.57-78.28,101.37-103.75C516.34,16.84,568.55,3,622.3,3 M622.3,0C509.99,0,412.96,59.36,367.3,145.37
		c-9.11-1.13-18.41-1.73-27.86-1.73c-88.85,0-164.4,51.6-192.23,123.56c-3.77-0.29-7.58-0.44-11.43-0.44
		C60.79,266.76,0,321.88,0,389.88c0,67.62,60.11,122.49,134.52,123.11V513h736.71c74.99,0,135.78-55.12,135.78-123.12
		c0-57.51-43.48-105.8-102.26-119.34c0.28-4.65,0.43-9.33,0.43-14.04C905.17,114.84,778.53,0,622.3,0L622.3,0z"/>
</g>
<text transform="matrix(1 0 0 1 146.4517 457.0117)" class="st1 st2">cloud</text>
<path class="st3" d="M178.82,688.5l-0.78-2.15c-0.85-4.5-2.37-8.63-4.39-12.15l-18.29-50.59l-18.17,50.26
	c-2.18,3.7-3.8,8.08-4.66,12.88l-0.63,1.75h0.36c-0.28,2.02-0.43,4.11-0.43,6.25c0,18.14,10.52,32.84,23.5,32.84
	s23.5-14.7,23.5-32.84c0-2.14-0.15-4.23-0.43-6.25H178.82z"/>
<path class="st3" d="M598.7,597.5l-0.78-2.15c-0.85-4.5-2.37-8.63-4.39-12.15l-18.29-50.59l-18.17,50.26
	c-2.18,3.7-3.8,8.08-4.66,12.88l-0.63,1.75h0.36c-0.28,2.02-0.43,4.11-0.43,6.25c0,18.14,10.52,32.84,23.5,32.84
	s23.5-14.7,23.5-32.84c0-2.14-0.15-4.23-0.43-6.25H598.7z"/>
<path class="st3" d="M460.7,731.5l-0.78-2.15c-0.85-4.5-2.37-8.63-4.39-12.15l-18.29-50.59l-18.17,50.26
	c-2.18,3.7-3.8,8.08-4.66,12.88l-0.63,1.75h0.36c-0.28,2.02-0.43,4.11-0.43,6.25c0,18.14,10.52,32.84,23.5,32.84
	c12.98,0,23.5-14.7,23.5-32.84c0-2.14-0.15-4.23-0.43-6.25H460.7z"/>
<path class="st3" d="M321.7,627.5l-0.78-2.15c-0.85-4.5-2.37-8.63-4.39-12.15l-18.29-50.59l-18.17,50.26
	c-2.18,3.7-3.8,8.08-4.66,12.88l-0.63,1.75h0.36c-0.28,2.02-0.43,4.11-0.43,6.25c0,18.14,10.52,32.84,23.5,32.84
	c12.98,0,23.5-14.7,23.5-32.84c0-2.14-0.15-4.23-0.43-6.25H321.7z"/>
<path class="st3" d="M714.7,693.5l-0.78-2.15c-0.85-4.5-2.37-8.63-4.39-12.15l-18.29-50.59l-18.17,50.26
	c-2.18,3.7-3.8,8.08-4.66,12.88l-0.63,1.75h0.36c-0.28,2.02-0.43,4.11-0.43,6.25c0,18.14,10.52,32.84,23.5,32.84
	s23.5-14.7,23.5-32.84c0-2.14-0.15-4.23-0.43-6.25H714.7z"/>
<path class="st3" d="M930.7,591.5l-0.78-2.15c-0.85-4.5-2.37-8.63-4.39-12.15l-18.29-50.59l-18.17,50.26
	c-2.18,3.7-3.8,8.08-4.66,12.88l-0.63,1.75h0.36c-0.28,2.02-0.43,4.11-0.43,6.25c0,18.14,10.52,32.84,23.5,32.84
	s23.5-14.7,23.5-32.84c0-2.14-0.15-4.23-0.43-6.25H930.7z"/>
</svg>
